<svg width="129" height="129" viewBox="0 0 129 129" fill="none" xmlns="http://www.w3.org/2000/svg">
<mask id="path-1-inside-1_166_2890" fill="white">
<path d="M51.1881 87.9818C45.6082 83.5928 41.8471 79.6126 40.3668 76.6937C37.7399 71.5144 36.5507 65.929 37.6117 60.2193C38.6727 54.5097 41.5841 49.3082 45.8962 45.4183C50.2083 41.5284 55.6812 39.1666 61.4696 38.6975C67.258 38.2284 73.0399 39.6782 77.9221 42.823C82.8043 45.9678 86.5152 50.6326 88.4817 56.0969C90.4482 61.5611 90.5609 67.5209 88.8023 73.0556C87.0437 78.5903 83.3493 85.9605 64.1164 101.834L54.3425 92.0594C56.6885 90.4196 72.6638 75.1295 76.0243 68.9955C77.3995 66.4852 76.8355 63.3302 75.8663 60.637C74.897 57.9437 73.068 55.6446 70.6617 54.0946C68.2553 52.5446 65.4056 51.83 62.5526 52.0612C59.6997 52.2924 57.0022 53.4565 54.8769 55.3738C52.7515 57.291 51.3166 59.8547 50.7936 62.6688C50.2707 65.483 51.0296 68.0763 52.3243 70.629C53.619 73.1818 57.8495 77.478 60.4289 78.7186L51.1881 87.9818Z"/>
</mask>
<path d="M51.1881 87.9818L31.1388 113.471L53.7916 131.289L74.1466 110.885L51.1881 87.9818ZM40.3668 76.6937L69.2889 62.0256L69.2887 62.025L40.3668 76.6937ZM64.1164 101.834L41.1853 124.764L62.0263 145.606L84.7583 126.845L64.1164 101.834ZM54.3425 92.0594L35.7637 65.4797L4.06121 87.6393L31.4114 114.99L54.3425 92.0594ZM76.0243 68.9955L104.465 84.5765L104.465 84.5765L76.0243 68.9955ZM60.4289 78.7186L83.3874 101.622L115.642 69.2896L74.4853 49.4942L60.4289 78.7186ZM71.2373 62.4931C70.3169 61.7691 69.5571 61.129 68.9484 60.5857C68.3341 60.0372 67.9265 59.6343 67.6916 59.3884C67.443 59.1281 67.485 59.1452 67.7119 59.4436C67.8325 59.6022 68.0377 59.8828 68.2953 60.283C68.5496 60.6781 68.9016 61.2617 69.2889 62.0256L11.4446 91.3618C16.3138 100.963 24.928 108.585 31.1388 113.471L71.2373 62.4931ZM69.2887 62.025C69.2007 61.8515 69.3896 62.167 69.5292 62.9477C69.6789 63.785 69.7243 64.9103 69.495 66.144L5.72842 54.2947C3.09602 68.461 6.33545 81.2882 11.4449 91.3624L69.2887 62.025ZM69.495 66.144C69.2546 67.4377 68.5949 68.6163 67.6179 69.4977L24.1746 21.339C14.5733 30.0002 8.09079 41.5817 5.72842 54.2947L69.495 66.144ZM67.6179 69.4977C66.6408 70.3791 65.4006 70.9143 64.0891 71.0206L58.8502 6.37433C45.9618 7.4188 33.7759 12.6777 24.1746 21.339L67.6179 69.4977ZM64.0891 71.0206C62.7775 71.1269 61.4674 70.7984 60.3612 70.0858L95.483 15.5602C84.6123 8.558 71.7386 5.32986 58.8502 6.37433L64.0891 71.0206ZM60.3612 70.0858C59.2549 69.3732 58.4141 68.3162 57.9685 67.0781L118.995 45.1156C114.616 32.9489 106.354 22.5623 95.483 15.5602L60.3612 70.0858ZM57.9685 67.0781C57.5229 65.8399 57.4974 64.4895 57.8958 63.2354L119.709 82.8758C123.624 70.5523 123.374 57.2824 118.995 45.1156L57.9685 67.0781ZM57.8958 63.2354C57.8658 63.3299 57.9692 63.0144 58.1443 62.6782C58.2836 62.4106 58.1906 62.6687 57.5052 63.5418C55.9582 65.5122 52.1691 69.6467 43.4745 76.8224L84.7583 126.845C106.023 109.295 115.206 97.0483 119.709 82.8758L57.8958 63.2354ZM87.0475 78.903L77.2735 69.1288L31.4114 114.99L41.1853 124.764L87.0475 78.903ZM72.9212 118.639C75.7884 116.635 79.0158 113.606 80.4088 112.302C82.6258 110.227 85.2738 107.651 87.943 104.932C90.5828 102.244 93.4763 99.1784 96.0822 96.1639C98.2045 93.7087 101.837 89.3745 104.465 84.5765L47.5835 53.4145C48.2469 52.2036 48.6843 51.6892 48.3643 52.1121C48.1501 52.3951 47.7175 52.9366 47.0153 53.749C45.6073 55.3778 43.7303 57.3874 41.6629 59.4931C39.625 61.5687 37.6293 63.5066 36.086 64.9512C35.3083 65.6792 34.7403 66.193 34.4018 66.4905C34.2298 66.6417 34.2043 66.6602 34.2961 66.5845C34.3452 66.5439 34.4774 66.4356 34.6749 66.2817C34.8481 66.1468 35.2326 65.851 35.7637 65.4797L72.9212 118.639ZM104.465 84.5765C112.997 69.0032 107.895 53.8667 106.38 49.6557L45.353 71.6182C45.2328 71.2841 44.6265 69.5867 44.4589 66.9144C44.2849 64.1389 44.5226 59.0018 47.5835 53.4145L104.465 84.5765ZM106.38 49.6557C102.998 40.2601 96.6174 32.2391 88.2226 26.8318L53.1008 81.3574C49.5186 79.05 46.7959 75.6274 45.353 71.6182L106.38 49.6557ZM88.2226 26.8318C79.8278 21.4244 69.8861 18.9315 59.9332 19.7381L65.1721 84.3843C60.9251 84.7285 56.6829 83.6648 53.1008 81.3574L88.2226 26.8318ZM59.9332 19.7381C49.9803 20.5446 40.5698 24.6058 33.1552 31.2944L76.5985 79.4531C73.4346 82.3072 69.419 84.0402 65.1721 84.3843L59.9332 19.7381ZM33.1552 31.2944C25.7407 37.9829 20.7346 46.9267 18.9103 56.7442L82.6769 68.5935C81.8985 72.7827 79.7624 76.5991 76.5985 79.4531L33.1552 31.2944ZM18.9103 56.7442C16.5576 69.4052 20.4994 79.574 23.4024 85.2977L81.2462 55.9604C81.5597 56.5786 83.9838 61.5608 82.6769 68.5935L18.9103 56.7442ZM23.4024 85.2977C26.3342 91.0784 30.5125 95.6353 32.9171 98.0497C35.2098 100.352 40.0362 104.895 46.3726 107.943L74.4853 49.4942C75.8148 50.1337 76.7622 50.7273 77.2694 51.0624C77.8143 51.4224 78.1878 51.708 78.3844 51.8636C78.5923 52.0282 78.7198 52.1406 78.7747 52.1901C78.8332 52.2428 78.8624 52.2718 78.8726 52.282C78.883 52.2925 78.9032 52.3131 78.9398 52.354C78.9739 52.3921 79.0595 52.4894 79.1908 52.655C79.3143 52.8109 79.5511 53.1191 79.8588 53.5772C80.1437 54.0013 80.664 54.8125 81.2462 55.9604L23.4024 85.2977ZM37.4705 55.8155L28.2296 65.0787L74.1466 110.885L83.3874 101.622L37.4705 55.8155Z" fill="#181616" mask="url(#path-1-inside-1_166_2890)"/>
<mask id="path-3-inside-2_166_2890" fill="white">
<path d="M74.0553 117.57C67.5428 122.59 58.4714 122.386 52.5419 116.689C40.1581 104.791 23.1514 86.8638 20.7774 80.0631C17.5836 70.9142 17.3815 60.9868 20.2002 51.7155C23.019 42.4442 28.7126 34.3093 36.4582 28.4863C44.2039 22.6634 53.6004 19.454 63.2898 19.322C72.9792 19.19 82.4597 22.1422 90.3611 27.752C98.2625 33.3618 104.176 41.3387 107.246 50.5297C110.316 59.7208 110.384 69.65 107.441 78.8825C104.498 88.115 97.7674 97.1002 89.944 102.818L80.5688 92.606C85.9504 88.6726 91.8307 80.9023 93.8554 74.5513C95.8802 68.2004 95.8331 61.3701 93.7211 55.0476C91.6091 48.7251 87.5415 43.2379 82.1062 39.379C76.6709 35.52 70.1494 33.4892 63.4841 33.58C56.8188 33.6708 50.355 35.8785 45.0268 39.8841C39.6986 43.8897 35.782 49.4856 33.843 55.8633C31.904 62.241 31.4654 69.3024 34.24 75.3634C38.804 85.3336 74.0553 117.57 74.0553 117.57V117.57Z"/>
</mask>
<path d="M89.944 102.818L65.2312 125.505L85.5195 147.605L109.74 129.902L89.944 102.818ZM80.5688 92.606L60.773 65.5219L30.4864 87.6584L55.8561 115.293L80.5688 92.606ZM34.24 75.3634L64.7432 61.4001L34.24 75.3634ZM75.7842 92.498C70.0254 86.9651 63.3022 80.1305 57.9159 74.1057C55.2003 71.068 53.15 68.5983 51.818 66.826C51.5054 66.4102 51.2715 66.0844 51.1052 65.8444C50.9354 65.5993 50.8721 65.4954 50.8876 65.5206C50.8953 65.5331 51.0561 65.7932 51.2976 66.2686C51.5211 66.7085 51.9777 67.6525 52.4503 69.0064L-10.8956 91.1197C-8.42727 98.1904 -4.01719 104.21 -1.81664 107.138C1.09479 111.011 4.51531 115.042 7.89603 118.824C14.7026 126.437 22.6746 134.515 29.2995 140.881L75.7842 92.498ZM52.4503 69.0064C51.6016 66.5754 51.5479 63.9375 52.2969 61.4739L-11.8965 41.9571C-16.785 58.0361 -16.4345 75.253 -10.8956 91.1197L52.4503 69.0064ZM52.2969 61.4739C53.046 59.0103 54.5589 56.8487 56.617 55.3014L16.2994 1.67128C2.86631 11.7699 -7.00797 25.8782 -11.8965 41.9571L52.2969 61.4739ZM56.617 55.3014C58.6752 53.7541 61.1721 52.9013 63.7468 52.8662L62.8329 -14.2223C46.0287 -13.9933 29.7326 -8.42736 16.2994 1.67128L56.617 55.3014ZM63.7468 52.8662C66.3215 52.8311 68.8406 53.6156 70.9402 55.1063L109.782 0.3978C96.0787 -9.33119 79.637 -14.4512 62.8329 -14.2223L63.7468 52.8662ZM70.9402 55.1063C73.0398 56.5969 74.611 58.7165 75.4268 61.1588L139.065 39.9007C133.74 23.9608 123.485 10.1268 109.782 0.3978L70.9402 55.1063ZM75.4268 61.1588C76.2427 63.601 76.2608 66.2394 75.4787 68.6927L139.403 89.0723C144.508 73.0606 144.389 55.8406 139.065 39.9007L75.4268 61.1588ZM75.4787 68.6927C74.8416 70.6912 72.6248 73.924 70.1482 75.7342L109.74 129.902C122.91 120.276 134.154 105.539 139.403 89.0723L75.4787 68.6927ZM114.657 80.1312L105.282 69.9189L55.8561 115.293L65.2312 125.505L114.657 80.1312ZM100.365 119.69C106.423 115.262 111.54 109.692 115.41 104.479C119.228 99.3338 123.344 92.5015 125.818 84.7411L61.8931 64.3615C62.0476 63.877 62.1758 63.573 62.2281 63.4545C62.2829 63.3302 62.2955 63.3163 62.2462 63.4064C62.1357 63.6086 61.8975 63.9998 61.5324 64.4918C61.1701 64.98 60.8169 65.3864 60.553 65.6584C60.429 65.7863 60.3656 65.8422 60.3748 65.834C60.3799 65.8295 60.5091 65.7148 60.773 65.5219L100.365 119.69ZM125.818 84.7411C130.004 71.611 129.907 57.4899 125.54 44.4186L61.9021 65.6767C61.7597 65.2503 61.7566 64.7898 61.8931 64.3615L125.818 84.7411ZM125.54 44.4186C121.174 31.3473 112.764 20.0029 101.527 12.0247L62.6853 66.7332C62.3188 66.473 62.0446 66.103 61.9021 65.6767L125.54 44.4186ZM101.527 12.0247C90.29 4.04662 76.8071 -0.151967 63.0271 0.0357513L63.941 67.1242C63.4916 67.1303 63.0518 66.9934 62.6853 66.7332L101.527 12.0247ZM63.0271 0.0357513C49.2471 0.22347 35.8836 4.7878 24.868 13.069L65.1856 66.6992C64.8263 66.9692 64.3905 67.1181 63.941 67.1242L63.0271 0.0357513ZM24.868 13.069C13.8523 21.3503 5.75501 32.9196 1.74627 46.1049L65.9397 65.6217C65.8089 66.0517 65.5448 66.4291 65.1856 66.6992L24.868 13.069ZM1.74627 46.1049C-1.5346 56.8962 -3.68882 73.1056 3.73673 89.3268L64.7432 61.4001C65.7134 63.5194 65.8222 65.1696 65.8212 65.7846C65.8203 66.3462 65.7376 66.2864 65.9397 65.6217L1.74627 46.1049ZM3.73673 89.3268C7.31253 97.1382 13.9013 104.628 17.3523 108.496C21.9546 113.655 27.3345 119.164 32.2367 124.026C37.1989 128.947 41.9711 133.5 45.4822 136.805C47.2449 138.464 48.7067 139.825 49.7369 140.779C50.2523 141.256 50.6607 141.633 50.9457 141.895C51.0883 142.026 51.2001 142.129 51.2791 142.201C51.3187 142.237 51.35 142.266 51.3729 142.287C51.3843 142.298 51.3937 142.306 51.4009 142.313C51.4045 142.316 51.4075 142.319 51.4101 142.321C51.4113 142.322 51.4128 142.324 51.4134 142.324C51.4148 142.325 51.416 142.327 74.0553 117.57C96.6945 92.8134 96.6955 92.8143 96.6963 92.815C96.6964 92.8151 96.6971 92.8157 96.6973 92.8159C96.6976 92.8162 96.6975 92.8161 96.6968 92.8155C96.6955 92.8143 96.692 92.8111 96.6865 92.8061C96.6755 92.796 96.6562 92.7783 96.6289 92.7532C96.5742 92.7031 96.4875 92.6235 96.3708 92.5161C96.1373 92.3013 95.7838 91.9755 95.3264 91.5519C94.411 90.7041 93.0831 89.4683 91.4697 87.9496C88.2286 84.8987 83.9027 80.7696 79.4815 76.3852C75.0004 71.9414 70.7118 67.5218 67.4208 63.8326C65.7676 61.9793 64.6253 60.5989 63.931 59.689C62.9246 58.3702 63.72 59.1649 64.7432 61.4001L3.73673 89.3268ZM29.2995 140.881C48.0011 158.849 75.7631 158.611 94.5362 144.14L53.5743 91.0001C59.3224 86.5694 68.9417 85.9238 75.7842 92.498L29.2995 140.881Z" fill="#181616" mask="url(#path-3-inside-2_166_2890)"/>
<path d="M63.9821 101.775L74.5217 92.3263L87.1213 105.719L77.0321 114.981L63.9821 101.775Z" fill="#181616"/>
<path d="M58.1174 69.546C55.3456 66.5267 55.5462 61.8321 58.5655 59.0603V59.0603C61.5848 56.2885 66.2794 56.4891 69.0513 59.5084V59.5084C71.8231 62.5277 71.6225 67.2223 68.6032 69.9941L63.1362 75.013L58.1174 69.546Z" fill="#181616"/>
</svg>
