<svg width="24" height="24" viewBox="0 0 24 24" fill="none" xmlns="http://www.w3.org/2000/svg">
<path d="M24 11.9995C24 8.81705 22.7363 5.76493 20.4869 3.51458C18.2375 1.26424 15.1867 5.12276e-06 12.0055 5.12276e-06C8.98525 -0.00278525 6.07508 1.13446 3.85634 3.18457C1.6376 5.23468 0.273647 8.04674 0.0369209 11.059C-0.199805 14.0713 0.708128 17.062 2.57936 19.4338C4.45059 21.8056 7.14736 23.3839 10.131 23.8533V15.4674H7.08783V11.9995H10.1327V9.3562C10.1327 6.34946 11.9233 4.68667 14.6632 4.68667C15.9757 4.68667 17.3482 4.92152 17.3482 4.92152V7.87512H15.8352C14.3445 7.87512 13.8818 8.80079 13.8818 9.74876V11.9995H17.2077L16.6765 15.4674H13.8801V23.8533C16.7014 23.4064 19.2707 21.967 21.1258 19.794C22.9809 17.621 24.0001 14.8572 24 11.9995Z" fill="#1877F2"/>
<path d="M16.6748 15.467L17.2059 11.9991H13.8801V9.74837C13.8801 8.80041 14.3427 7.87473 15.8334 7.87473H17.3464V4.91942C17.3464 4.91942 15.9739 4.68457 14.6614 4.68457C11.9198 4.68457 10.1309 6.34736 10.1309 9.3541V11.9991H7.08777V15.467H10.1326V23.8529C11.3747 24.0485 12.6397 24.0485 13.8818 23.8529V15.467H16.6748Z" fill="white"/>
</svg>
