<svg width="24" height="24" viewBox="0 0 24 24" fill="none" xmlns="http://www.w3.org/2000/svg">
<g clip-path="url(#clip0_166_3249)">
<path d="M23.7139 12.2242C23.7139 11.2409 23.6342 10.5234 23.4615 9.7793H12.2335V14.2173H18.8241C18.6913 15.3202 17.9737 16.9811 16.3792 18.0972L16.3568 18.2458L19.9069 20.996L20.1529 21.0205C22.4117 18.9344 23.7139 15.8649 23.7139 12.2242Z" fill="#4285F4"/>
<path d="M12.2335 23.9178C15.4623 23.9178 18.173 22.8548 20.1529 21.0211L16.3792 18.0978C15.3693 18.8021 14.014 19.2937 12.2335 19.2937C9.07109 19.2937 6.38703 17.2076 5.43023 14.3242L5.28999 14.3361L1.59857 17.193L1.55029 17.3271C3.51683 21.2337 7.55625 23.9178 12.2335 23.9178Z" fill="#34A853"/>
<path d="M5.43029 14.3238C5.17783 13.5797 5.03173 12.7824 5.03173 11.9586C5.03173 11.1347 5.17783 10.3375 5.41701 9.59342L5.41032 9.43494L1.67264 6.53223L1.55035 6.59039C0.739849 8.21149 0.27478 10.0319 0.27478 11.9586C0.27478 13.8853 0.739849 15.7056 1.55035 17.3267L5.43029 14.3238Z" fill="#FBBC05"/>
<path d="M12.2335 4.62403C14.4791 4.62403 15.9938 5.59402 16.8575 6.40461L20.2326 3.10928C18.1598 1.1826 15.4623 0 12.2335 0C7.55625 0 3.51683 2.68406 1.55029 6.59056L5.41695 9.59359C6.38703 6.7102 9.07109 4.62403 12.2335 4.62403Z" fill="#EB4335"/>
</g>
<defs>
<clipPath id="clip0_166_3249">
<rect width="24" height="24" fill="white"/>
</clipPath>
</defs>
</svg>
