<svg width="24" height="24" viewBox="0 0 24 24" fill="none" xmlns="http://www.w3.org/2000/svg">
<path d="M12 24C18.6274 24 24 18.6274 24 12C24 5.37258 18.6274 0 12 0C5.37258 0 0 5.37258 0 12C0 18.6274 5.37258 24 12 24Z" fill="#0077B5"/>
<path fill-rule="evenodd" clip-rule="evenodd" d="M8.8648 6.17014C8.8648 6.9172 8.296 7.52176 7.4065 7.52176C6.55162 7.52176 5.98276 6.9172 6.0004 6.17014C5.98276 5.38678 6.55156 4.7998 7.42354 4.7998C8.296 4.7998 8.84776 5.38678 8.8648 6.17014ZM6.07192 17.2913V8.58952H8.77624V17.2907L6.07192 17.2913Z" fill="white"/>
<path fill-rule="evenodd" clip-rule="evenodd" d="M10.9436 11.3666C10.9436 10.2813 10.9078 9.35599 10.8721 8.59081H13.2211L13.3459 9.78289H13.3993C13.7552 9.23113 14.6448 8.39551 16.0861 8.39551C17.8651 8.39551 19.1997 9.57001 19.1997 12.1313V17.2925H16.4953V12.4702C16.4953 11.3485 16.1042 10.5838 15.1256 10.5838C14.378 10.5838 13.9335 11.0998 13.7558 11.5977C13.6843 11.776 13.6491 12.0246 13.6491 12.2743V17.2925H10.9447V11.3666H10.9436Z" fill="white"/>
</svg>
