<svg width="28" height="28" viewBox="0 0 28 28" fill="none" xmlns="http://www.w3.org/2000/svg">
<g clip-path="url(#clip0_219_1353)">
<path d="M26.6407 0.677867C26.5812 0.56018 26.4719 0.475742 26.3437 0.44818C25.0399 0.16293 23.2943 0.0185547 21.1567 0.0185547C19.0033 0.0185547 16.5349 0.172992 14.3837 0.441617C7.71798 1.27418 3.06254 5.95062 3.06254 11.8127V19.9843L1.35761 26.3486C1.17036 27.0477 1.58642 27.7679 2.28598 27.956C2.98511 28.1424 3.70567 27.7263 3.89292 27.0281L4.92192 23.1877H13.5625C19.835 23.1877 24.9375 18.0851 24.9375 11.8127C24.9375 8.89762 24.9375 4.90543 26.6499 1.0528C26.7033 0.93293 26.6998 0.79468 26.6407 0.677867ZM3.04767 26.8014C2.98511 27.0342 2.74536 27.1729 2.51217 27.1107C2.27854 27.0473 2.13986 26.8084 2.20242 26.5748L3.31892 22.3372C3.49611 22.6312 3.75555 22.8674 4.06792 23.0153L3.04767 26.8014ZM22.9019 3.91055C22.8699 3.92237 20.2707 4.91724 16.5384 7.98849C18.9762 7.73124 21.0154 8.29999 21.1204 8.3293C21.3527 8.3958 21.487 8.63774 21.4209 8.86962C21.3658 9.06212 21.1908 9.18768 21 9.18768C20.9602 9.18768 20.92 9.18199 20.8802 9.17105C20.8522 9.16274 18.0522 8.39055 15.2294 9.11199C14.6497 9.6313 14.0517 10.1926 13.4344 10.8095C12.716 11.5283 12.0715 12.2217 11.4849 12.8885C15.9522 12.0043 20.0542 13.0897 20.2401 13.1405C20.4733 13.2044 20.6107 13.4441 20.5472 13.6777C20.4943 13.8724 20.3175 14.0002 20.125 14.0002C20.087 14.0002 20.0485 13.9949 20.01 13.9849C19.9632 13.9722 15.25 12.7209 10.6147 13.9849C10.5924 13.991 10.5696 13.9919 10.5473 13.9941C9.36517 15.4387 8.49454 16.7079 7.87504 17.7216C12.3375 16.7962 16.1425 17.9044 16.3131 17.9561C16.5445 18.0256 16.6758 18.2693 16.6067 18.5003C16.5498 18.6902 16.3761 18.8127 16.1875 18.8127C16.146 18.8127 16.104 18.8066 16.062 18.7943C16.0195 18.7821 11.8388 17.5671 7.27173 18.7597C6.75373 19.7074 6.54067 20.2621 6.53498 20.277C6.46979 20.4533 6.30267 20.5627 6.12504 20.5627C6.07473 20.5627 6.02354 20.5535 5.97323 20.5356C5.74661 20.452 5.63111 20.2004 5.71423 19.9742C5.73917 19.9077 5.98854 19.2515 6.59361 18.1626C7.39729 13.9857 6.58136 10.1957 6.57261 10.1576C6.52054 9.9218 6.66929 9.68818 6.90511 9.63612C7.14267 9.58055 7.37454 9.73237 7.42704 9.96818C7.45723 10.1047 8.04917 12.8369 7.73898 16.2931C8.35761 15.3652 9.14073 14.2959 10.1295 13.1164C10.8702 8.6128 10.0809 4.94524 10.0726 4.90762C10.0205 4.6718 10.1693 4.43818 10.4051 4.38568C10.6409 4.33493 10.8745 4.48237 10.927 4.71818C10.959 4.86255 11.6135 7.90099 11.1769 11.9186C11.6817 11.3599 12.2216 10.785 12.8153 10.1913C13.3775 9.62912 13.9217 9.11768 14.4533 8.63512V8.63162C15.2727 5.76337 14.476 3.68262 14.4677 3.66205C14.3794 3.43762 14.4892 3.18343 14.7136 3.09462C14.9367 3.00449 15.1914 3.11387 15.281 3.3383C15.3139 3.42055 15.9806 5.13468 15.5685 7.65337C19.6219 4.21855 22.456 3.1423 22.5987 3.0898C22.8253 3.00755 23.0764 3.12174 23.16 3.3488C23.244 3.57499 23.128 3.82655 22.9019 3.91055Z" fill="#0E8345"/>
</g>
<defs>
<clipPath id="clip0_219_1353">
<rect width="28" height="28" fill="white"/>
</clipPath>
</defs>
</svg>
