<svg width="15" height="16" viewBox="0 0 15 16" fill="currentColor" xmlns="http://www.w3.org/2000/svg">
<path d="M8.79802 1.62496L10.118 4.26496C10.298 4.62496 10.778 4.98496 11.178 5.04496L13.568 5.44496C15.098 5.70496 15.458 6.80497 14.358 7.90496L12.498 9.77496C12.188 10.085 12.008 10.695 12.108 11.135L12.638 13.445C13.058 15.265 12.088 15.975 10.478 15.025L8.23802 13.695C7.82802 13.455 7.16802 13.455 6.75802 13.695L4.50802 15.015C2.89802 15.965 1.92802 15.255 2.34802 13.435L2.87802 11.125C2.97802 10.695 2.79802 10.085 2.48802 9.76496L0.63802 7.91496C-0.46198 6.81496 -0.10198 5.70496 1.42802 5.45496L3.81802 5.05496C4.21802 4.98496 4.69802 4.63496 4.87802 4.27496L6.19802 1.63496C6.90802 0.194964 8.08802 0.194964 8.79802 1.62496Z"/>
</svg>
