<svg width="100" height="100" viewBox="0 0 100 100" fill="none" xmlns="http://www.w3.org/2000/svg">
<mask id="path-1-inside-1_646_6581" fill="white">
<path d="M39.6 68.3309C35.2408 64.9046 32.3024 61.7974 31.1459 59.5187C29.0937 55.4754 28.1646 51.1152 28.9935 46.6579C29.8224 42.2006 32.0969 38.14 35.4658 35.1033C38.8346 32.0666 43.1103 30.2228 47.6325 29.8566C52.1547 29.4904 56.6718 30.6222 60.486 33.0772C64.3002 35.5322 67.1994 39.1738 68.7357 43.4396C70.2721 47.7054 70.3601 52.3579 68.9862 56.6786C67.6123 60.9994 64.726 66.753 49.7003 79.1444L42.0644 71.5141C43.8972 70.234 56.378 58.2976 59.0033 53.5091C60.0777 51.5494 59.6371 49.0864 58.8799 46.9839C58.1227 44.8814 56.6937 43.0865 54.8138 41.8765C52.9338 40.6665 50.7075 40.1086 48.4786 40.2891C46.2497 40.4696 44.1423 41.3784 42.4819 42.8751C40.8215 44.3718 39.7004 46.3732 39.2919 48.5701C38.8833 50.767 39.4762 52.7915 40.4877 54.7843C41.4992 56.7771 44.8043 60.131 46.8195 61.0995L39.6 68.3309Z"/>
</mask>
<path d="M39.6 68.3309L19.5443 93.8097L42.206 111.622L62.5678 91.2262L39.6 68.3309ZM31.1459 59.5187L60.0787 44.8574L60.0784 44.8569L31.1459 59.5187ZM49.7003 79.1444L26.7614 102.066L47.6109 122.9L70.3507 104.147L49.7003 79.1444ZM42.0644 71.5141L23.4777 44.9441L-8.23568 67.0944L19.1255 94.4355L42.0644 71.5141ZM59.0033 53.5091L87.455 69.0856L59.0033 53.5091ZM46.8195 61.0995L69.7872 83.9948L102.053 51.675L60.8796 31.8862L46.8195 61.0995ZM59.6558 42.8522C59.0407 42.3687 58.5615 41.9636 58.2069 41.6473C57.8467 41.326 57.6668 41.1423 57.6316 41.1055C57.5826 41.0543 57.7964 41.2704 58.1654 41.7553C58.3571 42.0073 58.626 42.3781 58.9397 42.865C59.2501 43.3468 59.6506 44.0139 60.0787 44.8574L2.21308 74.18C6.76 83.1388 14.5537 89.8871 19.5443 93.8097L59.6558 42.8522ZM60.0784 44.8569C60.5099 45.707 61.6319 48.5861 60.8888 52.5821L-2.90174 40.7336C-5.30263 53.6442 -2.32261 65.2439 2.21336 74.1806L60.0784 44.8569ZM60.8888 52.5821C60.4158 55.1254 59.1181 57.4419 57.1963 59.1743L13.7352 11.0323C5.07574 18.838 -0.771017 29.2758 -2.90174 40.7336L60.8888 52.5821ZM57.1963 59.1743C55.2745 60.9066 52.8351 61.9586 50.2549 62.1676L45.0102 -2.45444C33.3855 -1.51309 22.3948 3.22659 13.7352 11.0323L57.1963 59.1743ZM50.2549 62.1676C47.6745 62.3765 45.0967 61.7307 42.9197 60.3295L78.0523 5.82488C68.2468 -0.486382 56.6349 -3.39579 45.0102 -2.45444L50.2549 62.1676ZM42.9197 60.3295C40.7427 58.9283 39.088 56.8498 38.2111 54.4151L99.2603 32.464C95.3108 21.4979 87.8577 12.1361 78.0523 5.82488L42.9197 60.3295ZM38.2111 54.4151C37.3343 51.9805 37.2842 49.3256 38.0681 46.8604L99.9043 66.4969C103.436 55.3902 103.21 43.4302 99.2603 32.464L38.2111 54.4151ZM38.0681 46.8604C38.1343 46.652 38.3606 46.0086 38.7316 45.2966C39.0668 44.6533 39.2428 44.4874 38.9456 44.8656C38.1753 45.8461 35.6405 48.7069 29.0498 54.1421L70.3507 104.147C87.4091 90.079 95.7849 79.4516 99.9043 66.4969L38.0681 46.8604ZM72.6392 56.2231L65.0033 48.5928L19.1255 94.4355L26.7614 102.066L72.6392 56.2231ZM60.6511 98.0842C63.3907 96.1707 66.304 93.4194 67.2856 92.5012C69.0913 90.8122 71.2315 88.7319 73.386 86.5392C75.511 84.3765 77.8829 81.8679 80.0499 79.3629C81.7333 77.417 85.0097 73.5457 87.455 69.0856L30.5517 37.9326C31.3073 36.5544 31.88 35.8411 31.7271 36.0431C31.68 36.1052 31.4463 36.4042 30.9637 36.9621C29.9949 38.082 28.6398 39.5353 27.0873 41.1153C25.5644 42.6653 24.0766 44.1084 22.9447 45.1671C22.3727 45.7022 21.9863 46.0504 21.794 46.2192C21.6951 46.3061 21.7338 46.2696 21.8797 46.1494C21.9032 46.13 22.5291 45.6066 23.4777 44.9441L60.6511 98.0842ZM87.455 69.0856C95.6882 54.0684 90.7083 39.6285 89.4045 36.0083L28.3553 57.9594C28.1288 57.3305 27.4382 55.3135 27.2508 52.327C27.0569 49.2372 27.3392 43.7921 30.5517 37.9326L87.455 69.0856ZM89.4045 36.0083C86.2341 27.2055 80.2513 19.6904 72.3801 14.6242L37.2475 69.1288C33.1362 66.4826 30.0112 62.5573 28.3553 57.9594L89.4045 36.0083ZM72.3801 14.6242C64.5089 9.5579 55.1877 7.22246 45.8563 7.97811L51.1009 72.6001C46.2273 72.9948 41.3588 71.775 37.2475 69.1288L72.3801 14.6242ZM45.8563 7.97811C36.525 8.73374 27.7025 12.5383 20.7514 18.8041L64.2124 66.9461C60.5822 70.2184 55.9745 72.2055 51.1009 72.6001L45.8563 7.97811ZM20.7514 18.8041C13.8003 25.0699 9.10699 33.4484 7.39662 42.6458L71.1871 54.4943C70.2939 59.298 67.8427 63.6737 64.2124 66.9461L20.7514 18.8041ZM7.39662 42.6458C5.15764 54.6858 8.9346 64.2831 11.5552 69.4462L69.4203 40.1225C70.0178 41.2998 72.609 46.8482 71.1871 54.4943L7.39662 42.6458ZM11.5552 69.4462C14.3465 74.9455 18.2239 79.126 20.2916 81.2007C22.2474 83.163 26.7028 87.402 32.7593 90.3128L60.8796 31.8862C63.4014 33.0982 64.9318 34.3108 65.2568 34.5678C65.7986 34.9964 66.113 35.3011 66.2628 35.4514C66.4175 35.6066 66.6797 35.8815 67.0461 36.3435C67.2621 36.616 68.3094 37.9338 69.4203 40.1225L11.5552 69.4462ZM23.8518 38.2042L16.6323 45.4356L62.5678 91.2262L69.7872 83.9948L23.8518 38.2042Z" fill="black" mask="url(#path-1-inside-1_646_6581)"/>
<mask id="path-3-inside-2_646_6581" fill="white">
<path d="M57.4651 91.4293C52.3772 95.3483 45.2899 95.1889 40.6572 90.7413C30.9825 81.453 17.6964 67.4581 15.8417 62.1491C13.3466 55.007 13.1887 47.257 15.3908 40.0193C17.593 32.7816 22.0411 26.4309 28.0924 21.8852C34.1437 17.3394 41.4847 14.834 49.0546 14.7309C56.6244 14.6279 64.031 16.9326 70.204 21.3119C76.3769 25.6913 80.9965 31.9185 83.3952 39.0936C85.7938 46.2687 85.8472 54.0201 83.5477 61.2275C81.2482 68.4349 75.9901 75.4493 69.8781 79.9132L62.5537 71.9409C66.7582 68.8702 71.3521 62.8043 72.9339 57.8463C74.5158 52.8884 74.479 47.5563 72.829 42.6205C71.179 37.6848 68.0012 33.4012 63.7549 30.3886C59.5085 27.3761 54.4136 25.7907 49.2063 25.8616C43.999 25.9325 38.9492 27.656 34.7865 30.783C30.6239 33.91 27.564 38.2785 26.0492 43.2573C24.5344 48.2361 24.1917 53.7487 26.3594 58.4803C29.925 66.2636 57.4651 91.4293 57.4651 91.4293Z"/>
</mask>
<path d="M69.8781 79.9132L45.1569 102.591L65.4535 124.683L89.6824 106.988L69.8781 79.9132ZM62.5537 71.9409L42.7495 44.8664L12.4526 66.9937L37.8325 94.6188L62.5537 71.9409ZM26.3594 58.4803L56.8738 44.5237L26.3594 58.4803ZM63.9075 66.5598C59.5033 62.3316 54.3878 57.1324 50.3356 52.6032C48.2869 50.3133 46.8354 48.5564 45.9679 47.403C45.536 46.8288 45.4727 46.6996 45.6257 46.9481C45.635 46.9631 46.6186 48.4999 47.5264 51.0984L-15.843 73.1999C-13.5037 79.896 -9.42227 85.3888 -7.68581 87.6974C-5.23818 90.9515 -2.41576 94.2692 0.298274 97.3028C5.77147 103.42 12.1364 109.863 17.407 114.923L63.9075 66.5598ZM47.5264 51.0984C47.3774 50.672 47.3679 50.2089 47.4996 49.7759L-16.7179 30.2626C-20.9905 44.3052 -20.6843 59.342 -15.843 73.1999L47.5264 51.0984ZM47.4996 49.7759C47.6313 49.343 47.8975 48.9628 48.2598 48.6907L7.92501 -4.92035C-3.81532 3.89903 -12.4454 16.2202 -16.7179 30.2626L47.4996 49.7759ZM48.2598 48.6907C48.622 48.4186 49.0613 48.2688 49.5138 48.2626L48.5953 -18.8007C33.9081 -18.6008 19.6653 -13.7397 7.92501 -4.92035L48.2598 48.6907ZM49.5138 48.2626C49.9664 48.2564 50.4087 48.3942 50.7771 48.6555L89.6309 -6.03168C77.6534 -14.5291 63.2825 -19.0007 48.5953 -18.8007L49.5138 48.2626ZM50.7771 48.6555C51.1455 48.9169 51.4212 49.2885 51.5644 49.7169L115.226 28.4703C110.572 14.5485 101.608 2.4657 89.6309 -6.03168L50.7771 48.6555ZM51.5644 49.7169C51.7076 50.1453 51.7109 50.6085 51.5734 51.0396L115.522 71.4154C119.984 57.4317 119.88 42.3921 115.226 28.4703L51.5644 49.7169ZM51.5734 51.0396C51.6384 50.8356 51.6579 50.8354 51.5672 51.0084C51.4789 51.1772 51.3292 51.4274 51.1128 51.7212C50.897 52.0142 50.6656 52.2816 50.4477 52.501C50.3422 52.6072 50.2522 52.6898 50.1829 52.7496C50.1489 52.779 50.1219 52.8011 50.1028 52.8163C50.0836 52.8316 50.0737 52.8388 50.0738 52.8387L89.6824 106.988C101.143 98.6177 110.916 85.8537 115.522 71.4154L51.5734 51.0396ZM94.5994 57.2354L87.275 49.2631L37.8325 94.6188L45.1569 102.591L94.5994 57.2354ZM82.358 99.0154C87.8285 95.0201 92.331 90.0926 95.6764 85.5885C98.9711 81.1526 102.655 75.0961 104.908 68.0342L40.9596 47.6584C41.3554 46.4178 41.7251 45.7374 41.7889 45.6208C41.8799 45.4545 41.8811 45.4757 41.7782 45.6142C41.6782 45.7489 41.6104 45.8184 41.6398 45.7881C41.6625 45.7647 41.7478 45.6781 41.9059 45.5383C42.0599 45.4023 42.3382 45.1668 42.7495 44.8664L82.358 99.0154ZM104.908 68.0342C108.652 56.3 108.565 43.6797 104.66 31.9973L40.9982 53.2438C40.3928 51.4328 40.3794 49.4768 40.9596 47.6584L104.908 68.0342ZM104.66 31.9973C100.754 20.3148 93.2327 10.1756 83.1818 3.04502L44.328 57.7322C42.7697 56.6268 41.6036 55.0548 40.9982 53.2438L104.66 31.9973ZM83.1818 3.04502C73.1309 -4.08551 61.0716 -7.83784 48.747 -7.67007L49.6656 59.3933C47.7555 59.4193 45.8862 58.8377 44.328 57.7322L83.1818 3.04502ZM48.747 -7.67007C36.4224 -7.50231 24.4708 -3.42317 14.6192 3.97744L54.9539 57.5885C53.4276 58.7351 51.5757 59.3673 49.6656 59.3933L48.747 -7.67007ZM14.6192 3.97744C4.76748 11.3781 -2.4743 21.7171 -6.05956 33.5007L58.158 53.014C57.6024 54.8399 56.4803 56.4419 54.9539 57.5885L14.6192 3.97744ZM-6.05956 33.5007C-8.91665 42.891 -10.9758 57.5483 -4.15512 72.4369L56.8738 44.5237C58.1485 47.3062 58.3853 49.6743 58.3832 51.0161C58.3812 52.3045 58.1682 52.9804 58.158 53.014L-6.05956 33.5007ZM-4.15512 72.4369C-0.827791 79.7 5.09353 86.3365 7.68095 89.2348C11.4202 93.4234 15.7429 97.8433 19.6189 101.684C23.5549 105.585 27.3321 109.186 30.1047 111.793C31.4982 113.104 32.6549 114.18 33.4723 114.936C33.8814 115.315 34.2064 115.614 34.4348 115.824C34.549 115.929 34.6391 116.012 34.7035 116.071C34.7357 116.1 34.7615 116.124 34.7807 116.142C34.7903 116.15 34.7983 116.158 34.8045 116.163C34.8077 116.166 34.8104 116.169 34.8127 116.171C34.8138 116.172 34.8152 116.173 34.8158 116.174C34.8171 116.175 34.8183 116.176 57.4651 91.4293C80.1119 66.6826 80.1128 66.6835 80.1137 66.6843C80.1139 66.6844 80.1146 66.6851 80.1149 66.6854C80.1156 66.686 80.1158 66.6862 80.1156 66.686C80.1151 66.6856 80.1131 66.6837 80.1094 66.6804C80.1021 66.6737 80.0884 66.6611 80.0684 66.6428C80.0284 66.6061 79.9634 66.5465 79.875 66.4653C79.6982 66.3027 79.4281 66.0539 79.0771 65.7291C78.3745 65.0789 77.3518 64.1279 76.1077 62.9577C73.6051 60.6038 70.2744 57.4268 66.8797 54.0629C63.425 50.6395 60.1942 47.3086 57.7668 44.5895C56.5454 43.2213 55.7865 42.2964 55.3989 41.7888C54.6992 40.8725 55.7251 42.0162 56.8738 44.5237L-4.15512 72.4369ZM17.407 114.923C34.817 131.637 60.602 131.356 77.9547 117.99L36.9755 64.8689C44.1523 59.3409 55.7628 58.7404 63.9075 66.5598L17.407 114.923Z" fill="black" mask="url(#path-3-inside-2_646_6581)"/>
<path d="M49.5954 79.0991L57.8294 71.7226L67.6729 82.1775L59.7907 89.4082L49.5954 79.0991Z" fill="black"/>
<path d="M45.0138 53.9392C42.8482 51.582 43.005 47.9169 45.3638 45.753C47.7225 43.5893 51.3902 43.7459 53.5557 46.103C55.7212 48.46 55.5645 52.1248 53.2059 54.2885L48.9346 58.2068L45.0138 53.9392Z" fill="black"/>
</svg>
