<svg width="100" height="100" viewBox="0 0 100 100" fill="none" xmlns="http://www.w3.org/2000/svg">
<mask id="path-1-inside-1_319_2683" fill="white">
<path d="M39.6 68.3308C35.2408 64.9044 32.3024 61.7973 31.1459 59.5186C29.0937 55.4753 28.1646 51.115 28.9935 46.6577C29.8224 42.2004 32.0969 38.1399 35.4658 35.1032C38.8346 32.0665 43.1103 30.2226 47.6325 29.8564C52.1547 29.4902 56.6718 30.6221 60.486 33.0771C64.3002 35.5321 67.1994 39.1737 68.7357 43.4395C70.2721 47.7052 70.3601 52.3578 68.9862 56.6785C67.6123 60.9992 64.726 66.7529 49.7003 79.1443L42.0644 71.514C43.8972 70.2339 56.378 58.2975 59.0033 53.509C60.0777 51.5493 59.6371 49.0862 58.8799 46.9838C58.1227 44.8813 56.6937 43.0864 54.8138 41.8764C52.9338 40.6663 50.7075 40.1085 48.4786 40.289C46.2497 40.4695 44.1423 41.3783 42.4819 42.875C40.8215 44.3717 39.7004 46.3731 39.2919 48.57C38.8833 50.7669 39.4762 52.7913 40.4877 54.7842C41.4992 56.777 44.8043 60.1309 46.8195 61.0994L39.6 68.3308Z"/>
</mask>
<path d="M39.6 68.3308L19.5443 93.8095L42.206 111.622L62.5678 91.2261L39.6 68.3308ZM31.1459 59.5186L60.0787 44.8573L60.0784 44.8568L31.1459 59.5186ZM49.7003 79.1443L26.7614 102.066L47.6109 122.9L70.3507 104.147L49.7003 79.1443ZM42.0644 71.514L23.4777 44.9439L-8.23568 67.0943L19.1255 94.4354L42.0644 71.514ZM59.0033 53.509L87.455 69.0855L59.0033 53.509ZM46.8195 61.0994L69.7872 83.9947L102.053 51.6749L60.8796 31.8861L46.8195 61.0994ZM59.6558 42.8521C59.0407 42.3686 58.5615 41.9635 58.2069 41.6472C57.8467 41.3259 57.6668 41.1422 57.6316 41.1053C57.5826 41.0541 57.7964 41.2703 58.1654 41.7552C58.3571 42.0071 58.626 42.3779 58.9397 42.8648C59.2501 43.3467 59.6506 44.0138 60.0787 44.8573L2.21308 74.1799C6.76 83.1386 14.5537 89.887 19.5443 93.8095L59.6558 42.8521ZM60.0784 44.8568C60.5099 45.7069 61.6319 48.586 60.8888 52.582L-2.90174 40.7335C-5.30263 53.6441 -2.32261 65.2437 2.21336 74.1805L60.0784 44.8568ZM60.8888 52.582C60.4158 55.1252 59.1181 57.4418 57.1963 59.1741L13.7352 11.0322C5.07574 18.8379 -0.771017 29.2757 -2.90174 40.7335L60.8888 52.582ZM57.1963 59.1741C55.2745 60.9065 52.8351 61.9585 50.2549 62.1675L45.0102 -2.45456C33.3855 -1.51321 22.3948 3.22646 13.7352 11.0322L57.1963 59.1741ZM50.2549 62.1675C47.6745 62.3764 45.0967 61.7306 42.9197 60.3294L78.0523 5.82475C68.2468 -0.486504 56.6349 -3.39592 45.0102 -2.45456L50.2549 62.1675ZM42.9197 60.3294C40.7427 58.9282 39.088 56.8496 38.2111 54.415L99.2603 32.4639C95.3108 21.4978 87.8577 12.136 78.0523 5.82475L42.9197 60.3294ZM38.2111 54.415C37.3343 51.9804 37.2842 49.3255 38.0681 46.8603L99.9043 66.4967C103.436 55.3901 103.21 43.43 99.2603 32.4639L38.2111 54.415ZM38.0681 46.8603C38.1343 46.6518 38.3606 46.0085 38.7316 45.2965C39.0668 44.6532 39.2428 44.4873 38.9456 44.8655C38.1753 45.846 35.6405 48.7067 29.0498 54.142L70.3507 104.147C87.4091 90.0789 95.7849 79.4515 99.9043 66.4967L38.0681 46.8603ZM72.6392 56.2229L65.0033 48.5927L19.1255 94.4354L26.7614 102.066L72.6392 56.2229ZM60.6511 98.0841C63.3907 96.1706 66.304 93.4192 67.2856 92.5011C69.0913 90.8121 71.2315 88.7318 73.386 86.5391C75.511 84.3764 77.8829 81.8678 80.0499 79.3628C81.7333 77.4169 85.0097 73.5456 87.455 69.0855L30.5517 37.9325C31.3073 36.5543 31.88 35.8409 31.7271 36.043C31.68 36.1051 31.4463 36.4041 30.9637 36.962C29.9949 38.0819 28.6398 39.5352 27.0873 41.1152C25.5644 42.6652 24.0766 44.1083 22.9447 45.167C22.3727 45.7021 21.9863 46.0502 21.794 46.2191C21.6951 46.306 21.7338 46.2695 21.8797 46.1492C21.9032 46.1298 22.5291 45.6065 23.4777 44.9439L60.6511 98.0841ZM87.455 69.0855C95.6882 54.0683 90.7083 39.6284 89.4045 36.0082L28.3553 57.9593C28.1288 57.3303 27.4382 55.3133 27.2508 52.3268C27.0569 49.2371 27.3392 43.7919 30.5517 37.9325L87.455 69.0855ZM89.4045 36.0082C86.2341 27.2053 80.2513 19.6903 72.3801 14.624L37.2475 69.1287C33.1362 66.4825 30.0112 62.5572 28.3553 57.9593L89.4045 36.0082ZM72.3801 14.624C64.5089 9.55778 55.1877 7.22234 45.8563 7.97798L51.1009 72.6C46.2273 72.9947 41.3588 71.7749 37.2475 69.1287L72.3801 14.624ZM45.8563 7.97798C36.525 8.73362 27.7025 12.5382 20.7514 18.804L64.2124 66.9459C60.5822 70.2183 55.9745 72.2053 51.1009 72.6L45.8563 7.97798ZM20.7514 18.804C13.8003 25.0698 9.10699 33.4483 7.39662 42.6457L71.1871 54.4942C70.2939 59.2978 67.8427 63.6736 64.2124 66.9459L20.7514 18.804ZM7.39662 42.6457C5.15764 54.6856 8.9346 64.283 11.5552 69.446L69.4203 40.1223C70.0178 41.2997 72.609 46.8481 71.1871 54.4942L7.39662 42.6457ZM11.5552 69.446C14.3465 74.9454 18.2239 79.1259 20.2916 81.2005C22.2474 83.1628 26.7028 87.4018 32.7593 90.3127L60.8796 31.8861C63.4014 33.0981 64.9318 34.3107 65.2568 34.5677C65.7986 34.9963 66.113 35.3009 66.2628 35.4513C66.4175 35.6065 66.6797 35.8813 67.0461 36.3434C67.2621 36.6159 68.3094 37.9337 69.4203 40.1223L11.5552 69.446ZM23.8518 38.2041L16.6323 45.4355L62.5678 91.2261L69.7872 83.9947L23.8518 38.2041Z" fill="white" mask="url(#path-1-inside-1_319_2683)"/>
<mask id="path-3-inside-2_319_2683" fill="white">
<path d="M57.4651 91.4293C52.3772 95.3483 45.2899 95.1889 40.6572 90.7413C30.9825 81.453 17.6964 67.4581 15.8417 62.1491C13.3466 55.007 13.1887 47.257 15.3908 40.0193C17.593 32.7816 22.0411 26.4309 28.0924 21.8852C34.1437 17.3394 41.4847 14.834 49.0546 14.7309C56.6244 14.6279 64.031 16.9326 70.204 21.3119C76.3769 25.6913 80.9965 31.9185 83.3952 39.0936C85.7938 46.2687 85.8472 54.0201 83.5477 61.2275C81.2482 68.4349 75.9901 75.4493 69.8781 79.9132L62.5537 71.9409C66.7582 68.8702 71.3521 62.8043 72.9339 57.8463C74.5158 52.8884 74.479 47.5563 72.829 42.6205C71.179 37.6848 68.0012 33.4012 63.7549 30.3886C59.5085 27.3761 54.4136 25.7907 49.2063 25.8616C43.999 25.9325 38.9492 27.656 34.7865 30.783C30.6239 33.91 27.564 38.2785 26.0492 43.2573C24.5344 48.2361 24.1917 53.7487 26.3594 58.4803C29.925 66.2636 57.4651 91.4293 57.4651 91.4293Z"/>
</mask>
<path d="M69.8781 79.9132L45.1569 102.591L65.4535 124.683L89.6824 106.988L69.8781 79.9132ZM62.5537 71.9409L42.7495 44.8664L12.4526 66.9937L37.8325 94.6188L62.5537 71.9409ZM26.3594 58.4803L56.8738 44.5237L26.3594 58.4803ZM63.9075 66.5598C59.5033 62.3316 54.3878 57.1324 50.3356 52.6032C48.2869 50.3133 46.8354 48.5564 45.9679 47.403C45.536 46.8288 45.4727 46.6996 45.6257 46.9481C45.635 46.9631 46.6186 48.4999 47.5264 51.0984L-15.843 73.1999C-13.5037 79.896 -9.42227 85.3888 -7.68581 87.6974C-5.23818 90.9515 -2.41576 94.2692 0.298274 97.3028C5.77147 103.42 12.1364 109.863 17.407 114.923L63.9075 66.5598ZM47.5264 51.0984C47.3774 50.672 47.3679 50.2089 47.4996 49.7759L-16.7179 30.2626C-20.9905 44.3052 -20.6843 59.342 -15.843 73.1999L47.5264 51.0984ZM47.4996 49.7759C47.6313 49.343 47.8975 48.9628 48.2598 48.6907L7.92501 -4.92035C-3.81532 3.89903 -12.4454 16.2202 -16.7179 30.2626L47.4996 49.7759ZM48.2598 48.6907C48.622 48.4186 49.0613 48.2688 49.5138 48.2626L48.5953 -18.8007C33.9081 -18.6008 19.6653 -13.7397 7.92501 -4.92035L48.2598 48.6907ZM49.5138 48.2626C49.9664 48.2564 50.4087 48.3942 50.7771 48.6555L89.6309 -6.03168C77.6534 -14.5291 63.2825 -19.0007 48.5953 -18.8007L49.5138 48.2626ZM50.7771 48.6555C51.1455 48.9169 51.4212 49.2885 51.5644 49.7169L115.226 28.4703C110.572 14.5485 101.608 2.4657 89.6309 -6.03168L50.7771 48.6555ZM51.5644 49.7169C51.7076 50.1453 51.7109 50.6085 51.5734 51.0396L115.522 71.4154C119.984 57.4317 119.88 42.3921 115.226 28.4703L51.5644 49.7169ZM51.5734 51.0396C51.6384 50.8356 51.6579 50.8354 51.5672 51.0084C51.4789 51.1772 51.3292 51.4274 51.1128 51.7212C50.897 52.0142 50.6656 52.2816 50.4477 52.501C50.3422 52.6072 50.2522 52.6898 50.1829 52.7496C50.1489 52.779 50.1219 52.8011 50.1028 52.8163C50.0836 52.8316 50.0737 52.8388 50.0738 52.8387L89.6824 106.988C101.143 98.6177 110.916 85.8537 115.522 71.4154L51.5734 51.0396ZM94.5994 57.2354L87.275 49.2631L37.8325 94.6188L45.1569 102.591L94.5994 57.2354ZM82.358 99.0154C87.8285 95.0201 92.331 90.0926 95.6764 85.5885C98.9711 81.1526 102.655 75.0961 104.908 68.0342L40.9596 47.6584C41.3554 46.4178 41.7251 45.7374 41.7889 45.6208C41.8799 45.4545 41.8811 45.4757 41.7782 45.6142C41.6782 45.7489 41.6104 45.8184 41.6398 45.7881C41.6625 45.7647 41.7478 45.6781 41.9059 45.5383C42.0599 45.4023 42.3382 45.1668 42.7495 44.8664L82.358 99.0154ZM104.908 68.0342C108.652 56.3 108.565 43.6797 104.66 31.9973L40.9982 53.2438C40.3928 51.4328 40.3794 49.4768 40.9596 47.6584L104.908 68.0342ZM104.66 31.9973C100.754 20.3148 93.2327 10.1756 83.1818 3.04502L44.328 57.7322C42.7697 56.6268 41.6036 55.0548 40.9982 53.2438L104.66 31.9973ZM83.1818 3.04502C73.1309 -4.08551 61.0716 -7.83784 48.747 -7.67007L49.6656 59.3933C47.7555 59.4193 45.8862 58.8377 44.328 57.7322L83.1818 3.04502ZM48.747 -7.67007C36.4224 -7.50231 24.4708 -3.42317 14.6192 3.97744L54.9539 57.5885C53.4276 58.7351 51.5757 59.3673 49.6656 59.3933L48.747 -7.67007ZM14.6192 3.97744C4.76748 11.3781 -2.4743 21.7171 -6.05956 33.5007L58.158 53.014C57.6024 54.8399 56.4803 56.4419 54.9539 57.5885L14.6192 3.97744ZM-6.05956 33.5007C-8.91665 42.891 -10.9758 57.5483 -4.15512 72.4369L56.8738 44.5237C58.1485 47.3062 58.3853 49.6743 58.3832 51.0161C58.3812 52.3045 58.1682 52.9804 58.158 53.014L-6.05956 33.5007ZM-4.15512 72.4369C-0.827791 79.7 5.09353 86.3365 7.68095 89.2348C11.4202 93.4234 15.7429 97.8433 19.6189 101.684C23.5549 105.585 27.3321 109.186 30.1047 111.793C31.4982 113.104 32.6549 114.18 33.4723 114.936C33.8814 115.315 34.2064 115.614 34.4348 115.824C34.549 115.929 34.6391 116.012 34.7035 116.071C34.7357 116.1 34.7615 116.124 34.7807 116.142C34.7903 116.15 34.7983 116.158 34.8045 116.163C34.8077 116.166 34.8104 116.169 34.8127 116.171C34.8138 116.172 34.8152 116.173 34.8158 116.174C34.8171 116.175 34.8183 116.176 57.4651 91.4293C80.1119 66.6826 80.1128 66.6835 80.1137 66.6843C80.1139 66.6844 80.1146 66.6851 80.1149 66.6854C80.1156 66.686 80.1158 66.6862 80.1156 66.686C80.1151 66.6856 80.1131 66.6837 80.1094 66.6804C80.1021 66.6737 80.0884 66.6611 80.0684 66.6428C80.0284 66.6061 79.9634 66.5465 79.875 66.4653C79.6982 66.3027 79.4281 66.0539 79.0771 65.7291C78.3745 65.0789 77.3518 64.1279 76.1077 62.9577C73.6051 60.6038 70.2744 57.4268 66.8797 54.0629C63.425 50.6395 60.1942 47.3086 57.7668 44.5895C56.5454 43.2213 55.7865 42.2964 55.3989 41.7888C54.6992 40.8725 55.7251 42.0162 56.8738 44.5237L-4.15512 72.4369ZM17.407 114.923C34.817 131.637 60.602 131.356 77.9547 117.99L36.9755 64.8689C44.1523 59.3409 55.7628 58.7404 63.9075 66.5598L17.407 114.923Z" fill="white" mask="url(#path-3-inside-2_319_2683)"/>
<path d="M49.5954 79.0992L57.8294 71.7226L67.6729 82.1776L59.7907 89.4083L49.5954 79.0992Z" fill="white"/>
<path d="M45.0138 53.9394C42.8482 51.5822 43.005 47.917 45.3638 45.7531C47.7225 43.5894 51.3902 43.746 53.5557 46.1031C55.7212 48.4601 55.5645 52.1249 53.2059 54.2887L48.9346 58.2069L45.0138 53.9394Z" fill="white"/>
</svg>
