<svg width="28" height="29" viewBox="0 0 28 29" fill="none" xmlns="http://www.w3.org/2000/svg">
<path d="M14.0233 3.89502C10.1616 3.89502 7.02331 7.03335 7.02331 10.895V14.2667C7.02331 14.9784 6.71998 16.0634 6.35831 16.67L5.01665 18.8984C4.18831 20.275 4.75998 21.8034 6.27665 22.3167C11.305 23.9967 16.73 23.9967 21.7583 22.3167C23.17 21.85 23.7883 20.1817 23.0183 18.8984L21.6766 16.67C21.3266 16.0634 21.0233 14.9784 21.0233 14.2667V10.895C21.0233 7.04502 17.8733 3.89502 14.0233 3.89502Z" stroke="#292D32" stroke-width="1.5" stroke-miterlimit="10" stroke-linecap="round"/>
<path d="M16.1817 4.23343C15.82 4.12843 15.4467 4.04676 15.0617 4.00009C13.9417 3.86009 12.8683 3.94176 11.865 4.23343C12.2033 3.37009 13.0433 2.76343 14.0233 2.76343C15.0033 2.76343 15.8433 3.37009 16.1817 4.23343Z" stroke="#292D32" stroke-width="1.5" stroke-miterlimit="10" stroke-linecap="round" stroke-linejoin="round"/>
<path d="M17.5233 22.7366C17.5233 24.6616 15.9483 26.2366 14.0233 26.2366C13.0666 26.2366 12.18 25.8399 11.55 25.2099C10.92 24.5799 10.5233 23.6932 10.5233 22.7366" stroke="#292D32" stroke-width="1.5" stroke-miterlimit="10"/>
</svg>
