<svg width="16" height="16" viewBox="0 0 16 16" fill="none" xmlns="http://www.w3.org/2000/svg">
<path d="M8.81389 1.62496L10.1339 4.26496C10.3139 4.62496 10.7939 4.98496 11.1939 5.04496L13.5839 5.44496C15.1139 5.70496 15.4739 6.80497 14.3739 7.90496L12.5139 9.77496C12.2039 10.085 12.0239 10.695 12.1239 11.135L12.6539 13.445C13.0739 15.265 12.1039 15.975 10.4939 15.025L8.25389 13.695C7.84389 13.455 7.18389 13.455 6.77389 13.695L4.52389 15.015C2.91389 15.965 1.94389 15.255 2.36389 13.435L2.89389 11.125C2.99389 10.695 2.81389 10.085 2.50389 9.76496L0.653889 7.91496C-0.446111 6.81496 -0.0861106 5.70496 1.44389 5.45496L3.83389 5.05496C4.23389 4.98496 4.71389 4.63496 4.89389 4.27496L6.21389 1.63496C6.92389 0.194964 8.10389 0.194964 8.81389 1.62496Z" fill="#F6BC2F"/>
</svg>
